<svg xmlns="http://www.w3.org/2000/svg" width="32" height="32" viewBox="0 0 32 32">
  <metadata><?xpacket begin="﻿" id="W5M0MpCehiHzreSzNTczkc9d"?>
<x:xmpmeta xmlns:x="adobe:ns:meta/" x:xmptk="Adobe XMP Core 5.6-c142 79.160924, 2017/07/13-01:06:39        ">
   <rdf:RDF xmlns:rdf="http://www.w3.org/1999/02/22-rdf-syntax-ns#">
      <rdf:Description rdf:about=""/>
   </rdf:RDF>
</x:xmpmeta>
                                                                                                    
                                                                                                    
                                                                                                    
                                                                                                    
                                                                                                    
                                                                                                    
                                                                                                    
                                                                                                    
                                                                                                    
                                                                                                    
                                                                                                    
                                                                                                    
                                                                                                    
                                                                                                    
                                                                                                    
                                                                                                    
                                                                                                    
                                                                                                    
                                                                                                    
                                                                                                    
                           
<?xpacket end="w"?></metadata>
<defs>
    <style>
      .cls-1 {
        fill: #95e1d3;
        fill-rule: evenodd;
      }
    </style>
  </defs>
  <path id="BULLSEYE" class="cls-1" d="M991,4286a16,16,0,1,1,16-16A16,16,0,0,1,991,4286Zm0-29a13,13,0,1,0,13,13A13,13,0,0,0,991,4257Zm0,22.5a9.5,9.5,0,1,1,9.5-9.5A9.5,9.5,0,0,1,991,4279.5Zm0-16a6.5,6.5,0,1,0,6.5,6.5A6.5,6.5,0,0,0,991,4263.5Zm0,9.5a3,3,0,1,1,3-3A3,3,0,0,1,991,4273Z" transform="translate(-975 -4254)"/>
</svg>
