<svg xmlns="http://www.w3.org/2000/svg" width="28" height="32" viewBox="0 0 28 32">
  <metadata><?xpacket begin="﻿" id="W5M0MpCehiHzreSzNTczkc9d"?>
<x:xmpmeta xmlns:x="adobe:ns:meta/" x:xmptk="Adobe XMP Core 5.6-c142 79.160924, 2017/07/13-01:06:39        ">
   <rdf:RDF xmlns:rdf="http://www.w3.org/1999/02/22-rdf-syntax-ns#">
      <rdf:Description rdf:about=""/>
   </rdf:RDF>
</x:xmpmeta>
                                                                                                    
                                                                                                    
                                                                                                    
                                                                                                    
                                                                                                    
                                                                                                    
                                                                                                    
                                                                                                    
                                                                                                    
                                                                                                    
                                                                                                    
                                                                                                    
                                                                                                    
                                                                                                    
                                                                                                    
                                                                                                    
                                                                                                    
                                                                                                    
                                                                                                    
                                                                                                    
                           
<?xpacket end="w"?></metadata>
<defs>
    <style>
      .cls-1 {
        fill: #95e1d3;
        fill-rule: evenodd;
      }
    </style>
  </defs>
  <path id="EQUALIZER" class="cls-1" d="M1002.5,4200.5h-3a1.5,1.5,0,0,1-1.5-1.5v-6a1.5,1.5,0,0,1,1.5-1.5h3a1.5,1.5,0,0,1,1.5,1.5v6A1.5,1.5,0,0,1,1002.5,4200.5Zm-3-15a1.5,1.5,0,0,1,3,0v4.5h-3v-4.5Zm-8,23h-3a1.5,1.5,0,0,1-1.5-1.5v-6a1.5,1.5,0,0,1,1.5-1.5h3a1.5,1.5,0,0,1,1.5,1.5v6A1.5,1.5,0,0,1,991.5,4208.5Zm-3-23a1.5,1.5,0,0,1,3,0V4198h-3v-12.5Zm-8,19h-3a1.5,1.5,0,0,1-1.5-1.5v-6a1.5,1.5,0,0,1,1.5-1.5h3a1.5,1.5,0,0,1,1.5,1.5v6A1.5,1.5,0,0,1,980.5,4204.5Zm-3-19a1.5,1.5,0,0,1,3,0v8.5h-3v-8.5Zm3,29a1.5,1.5,0,0,1-3,0V4206h3v8.5Zm11,0a1.5,1.5,0,0,1-3,0V4210h3v4.5Zm11,0a1.5,1.5,0,0,1-3,0V4202h3v12.5Z" transform="translate(-976 -4184)"/>
</svg>
