<svg xmlns="http://www.w3.org/2000/svg" width="16" height="16" viewBox="0 0 16 16">
  <metadata><?xpacket begin="﻿" id="W5M0MpCehiHzreSzNTczkc9d"?>
<x:xmpmeta xmlns:x="adobe:ns:meta/" x:xmptk="Adobe XMP Core 5.6-c142 79.160924, 2017/07/13-01:06:39        ">
   <rdf:RDF xmlns:rdf="http://www.w3.org/1999/02/22-rdf-syntax-ns#">
      <rdf:Description rdf:about=""/>
   </rdf:RDF>
</x:xmpmeta>
                                                                                                    
                                                                                                    
                                                                                                    
                                                                                                    
                                                                                                    
                                                                                                    
                                                                                                    
                                                                                                    
                                                                                                    
                                                                                                    
                                                                                                    
                                                                                                    
                                                                                                    
                                                                                                    
                                                                                                    
                                                                                                    
                                                                                                    
                                                                                                    
                                                                                                    
                                                                                                    
                           
<?xpacket end="w"?></metadata>
<defs>
    <style>
      .cls-1 {
        fill: #95e1d3;
        fill-rule: evenodd;
      }
    </style>
  </defs>
  <path id="instagram" class="cls-1" d="M517,9792.01H505a1.994,1.994,0,0,1-2-1.99v-12a2,2,0,0,1,2-2.01h12a2,2,0,0,1,2,2.01v12A1.994,1.994,0,0,1,517,9792.01Zm-6-11.1a3.1,3.1,0,0,0-2.811,1.8h0a0.177,0.177,0,0,1-.014.04,2.082,2.082,0,0,0-.08.2,0.867,0.867,0,0,0-.036.1c-0.023.07-.042,0.14-0.059,0.21-0.009.03-.019,0.07-0.026,0.1-0.017.08-.028,0.15-0.038,0.23,0,0.03-.011.06-0.015,0.09-0.011.11-.018,0.22-0.018,0.33a3.1,3.1,0,1,0,6.2,0c0-.11-0.007-0.22-0.018-0.33,0-.03-0.01-0.06-0.015-0.09-0.01-.08-0.022-0.15-0.038-0.23-0.007-.03-0.017-0.07-0.026-0.1-0.018-.07-0.036-0.14-0.059-0.21a0.867,0.867,0,0,0-.036-0.1,2.082,2.082,0,0,0-.08-0.2,0.177,0.177,0,0,1-.014-0.04h0A3.1,3.1,0,0,0,511,9780.91Zm6.2-2.29a0.8,0.8,0,0,0-.8-0.8h-1.6a0.8,0.8,0,0,0-.8.8v1.6a0.793,0.793,0,0,0,.8.79h1.6a0.793,0.793,0,0,0,.8-0.79v-1.6Zm0,4.09h-1.475a4.9,4.9,0,1,1-9.45,0H504.8v6.71a0.793,0.793,0,0,0,.8.79h10.8a0.793,0.793,0,0,0,.8-0.79v-6.71Z" transform="translate(-503 -9776)"/>
</svg>
