<svg xmlns="http://www.w3.org/2000/svg" width="12.25" height="16" viewBox="0 0 12.25 16">
  <metadata><?xpacket begin="﻿" id="W5M0MpCehiHzreSzNTczkc9d"?>
<x:xmpmeta xmlns:x="adobe:ns:meta/" x:xmptk="Adobe XMP Core 5.6-c142 79.160924, 2017/07/13-01:06:39        ">
   <rdf:RDF xmlns:rdf="http://www.w3.org/1999/02/22-rdf-syntax-ns#">
      <rdf:Description rdf:about=""/>
   </rdf:RDF>
</x:xmpmeta>
                                                                                                    
                                                                                                    
                                                                                                    
                                                                                                    
                                                                                                    
                                                                                                    
                                                                                                    
                                                                                                    
                                                                                                    
                                                                                                    
                                                                                                    
                                                                                                    
                                                                                                    
                                                                                                    
                                                                                                    
                                                                                                    
                                                                                                    
                                                                                                    
                                                                                                    
                                                                                                    
                           
<?xpacket end="w"?></metadata>
<defs>
    <style>
      .cls-1 {
        fill: #95e1d3;
        fill-rule: evenodd;
      }
    </style>
  </defs>
  <path id="pinterest" class="cls-1" d="M539.844,9786.42c-0.131.52-.262,1.07-0.4,1.6a12.462,12.462,0,0,1-.449,1.55,7.975,7.975,0,0,1-1.277,2.2c-0.359.42-.283,0.25-0.391,0.23-0.083-.02-0.09-0.1-0.106-0.22a12.065,12.065,0,0,1,0-2.09,11.384,11.384,0,0,1,.367-2.17c0.3-1.29.592-2.55,0.9-3.85a0.843,0.843,0,0,0,.057-0.28,3.931,3.931,0,0,1-.268-1.06,3.341,3.341,0,0,1,.087-1.21,2,2,0,0,1,1.184-1.46,1.326,1.326,0,0,1,1.083.08,1.155,1.155,0,0,1,.542.78,2.789,2.789,0,0,1-.049,1.18c-0.167.76-.387,1.33-0.586,2.07a2.253,2.253,0,0,0-.118,1.13,1.34,1.34,0,0,0,.529.8,1.535,1.535,0,0,0,1.016.28,2.237,2.237,0,0,0,1.657-.98,5.8,5.8,0,0,0,1.047-2.93,7.165,7.165,0,0,0,.043-1.26,3.464,3.464,0,0,0-.7-1.95,3.3,3.3,0,0,0-1.57-1.06,5.039,5.039,0,0,0-2.342-.15,4.148,4.148,0,0,0-3.072,2.21,4.412,4.412,0,0,0-.523,2.13,2.732,2.732,0,0,0,.424,1.56c0.083,0.13.205,0.23,0.286,0.38a1.058,1.058,0,0,1-.075.72c-0.068.27-.076,0.64-0.386,0.64a0.966,0.966,0,0,1-.4-0.15,3.193,3.193,0,0,1-1.514-2.33,5.607,5.607,0,0,1,0-2.03,5.771,5.771,0,0,1,2.747-3.84,6.6,6.6,0,0,1,2.442-.84c0.318-.05.647-0.06,1-0.08a6.136,6.136,0,0,1,2.7.5,5.549,5.549,0,0,1,1.863,1.35,5.711,5.711,0,0,1,1.395,3.49,8.506,8.506,0,0,1-.193,1.48,5.829,5.829,0,0,1-2.4,4.04,4.386,4.386,0,0,1-1.1.51,3.936,3.936,0,0,1-1.4.17,2.849,2.849,0,0,1-1.239-.36A2.01,2.01,0,0,1,539.844,9786.42Z" transform="translate(-534.75 -9776.03)"/>
</svg>
