<svg xmlns="http://www.w3.org/2000/svg" width="16" height="13" viewBox="0 0 16 13">
  <metadata><?xpacket begin="﻿" id="W5M0MpCehiHzreSzNTczkc9d"?>
<x:xmpmeta xmlns:x="adobe:ns:meta/" x:xmptk="Adobe XMP Core 5.6-c142 79.160924, 2017/07/13-01:06:39        ">
   <rdf:RDF xmlns:rdf="http://www.w3.org/1999/02/22-rdf-syntax-ns#">
      <rdf:Description rdf:about=""/>
   </rdf:RDF>
</x:xmpmeta>
                                                                                                    
                                                                                                    
                                                                                                    
                                                                                                    
                                                                                                    
                                                                                                    
                                                                                                    
                                                                                                    
                                                                                                    
                                                                                                    
                                                                                                    
                                                                                                    
                                                                                                    
                                                                                                    
                                                                                                    
                                                                                                    
                                                                                                    
                                                                                                    
                                                                                                    
                                                                                                    
                           
<?xpacket end="w"?></metadata>
<defs>
    <style>
      .cls-1 {
        fill: #95e1d3;
        fill-rule: evenodd;
      }
    </style>
  </defs>
  <path id="twitter" class="cls-1" d="M483.883,9777.52a3.343,3.343,0,0,1,2.594,1.03,5.48,5.48,0,0,0,1.682-.57c0.136-.08.272-0.15,0.409-0.22a3.349,3.349,0,0,1-1.066,1.54,1.562,1.562,0,0,1-.36.25v0.01a6.37,6.37,0,0,0,1.858-.5h0a5.263,5.263,0,0,1-1.113,1.28c-0.171.14-.342,0.27-0.513,0.41a9.429,9.429,0,0,1-.152,2.11,9.172,9.172,0,0,1-6.43,7.25,9.78,9.78,0,0,1-4.645.2,12.622,12.622,0,0,1-1.93-.63,8.359,8.359,0,0,1-.929-0.48l-0.288-.18a5.155,5.155,0,0,0,1.049.04c0.323-.05.639-0.04,0.937-0.1a7,7,0,0,0,1.97-.71,3.459,3.459,0,0,0,.889-0.59,2.867,2.867,0,0,1-.977-0.17,3.32,3.32,0,0,1-2.082-2.1,3.225,3.225,0,0,0,1.465-.07,2.313,2.313,0,0,1-1.073-.43,3.15,3.15,0,0,1-1.545-2.81c0.112,0.06.224,0.11,0.336,0.16a3.43,3.43,0,0,0,.689.19,0.846,0.846,0,0,0,.448.04H475.09c-0.165-.19-0.435-0.32-0.6-0.52a3.356,3.356,0,0,1-.736-2.98,3.825,3.825,0,0,1,.352-0.86,0.015,0.015,0,0,0,.016.01,2.144,2.144,0,0,0,.3.35,6.58,6.58,0,0,0,.977.93,9.684,9.684,0,0,0,4.012,1.94,6.152,6.152,0,0,0,1.474.19,3.043,3.043,0,0,1,.016-1.54,3.214,3.214,0,0,1,1.858-2.2,3.949,3.949,0,0,1,.728-0.23C483.616,9777.55,483.749,9777.53,483.883,9777.52Z" transform="translate(-473 -9777.5)"/>
</svg>
