<?xml version="1.0" standalone="no"?>
<!DOCTYPE svg PUBLIC "-//W3C//DTD SVG 1.1//EN" "http://www.w3.org/Graphics/SVG/1.1/DTD/svg11.dtd" >
<svg xmlns="http://www.w3.org/2000/svg">
<metadata>Generated by IcoMoon</metadata>
<defs>
<font id="icomoon" horiz-adv-x="1024">
<font-face units-per-em="1024" ascent="960" descent="-64" />
<missing-glyph horiz-adv-x="1024" />
<glyph unicode="&#x20;" horiz-adv-x="512" d="" />
<glyph unicode="&#xe900;" glyph-name="ALARM" horiz-adv-x="1074" d="M1032.058 641.049c-54.538 124.691-152.033 222.153-273.355 275.322l-3.394 1.326c33.221 26.408 75.778 42.369 122.063 42.369 108.806 0 197.011-88.205 197.011-197.011 0-46.26-15.944-88.795-42.636-122.412l0.311 0.406zM1024 422.82c0-0.021 0-0.046 0-0.070 0-129.377-50.671-246.919-133.251-333.863l0.198 0.21 68.121-68.155c9.005-9.004 14.576-21.444 14.576-35.185 0-27.48-22.277-49.756-49.756-49.756-0.013 0-0.027 0-0.040 0h0.002c-13.716 0.059-26.138 5.557-35.228 14.446l-73.115 73.182c-77.586-54.823-174.128-87.628-278.332-87.628-103.998 0-200.363 32.676-279.391 88.32l1.54-1.028-72.62-72.519c-9.172-9.496-22.017-15.391-36.24-15.391-27.813 0-50.361 22.547-50.361 50.361 0 14.206 5.882 27.038 15.343 36.194l0.014 0.013 67.55 67.483c-81.948 86.896-132.314 204.356-132.314 333.579 0 268.77 217.881 486.652 486.652 486.652s486.652-217.881 486.652-486.652c0-0.067 0-0.135 0-0.202v0.011zM537.18 808.918c-213.236 0-386.098-172.862-386.098-386.098s172.862-386.098 386.098-386.098c213.236 0 386.098 172.862 386.098 386.098v0c0 213.236-172.862 386.098-386.098 386.098v0zM738.623 372.459h-201.443c-27.813 0-50.361 22.547-50.361 50.361v0 268.59c0 27.813 22.547 50.361 50.361 50.361s50.361-22.547 50.361-50.361v0-218.23h151.082c27.813 0 50.361-22.547 50.361-50.361s-22.547-50.361-50.361-50.361v0zM43.209 633.999c-27.045 33.96-43.395 77.485-43.395 124.83 0 111.142 90.099 201.241 201.241 201.241 47.336 0 90.854-16.343 125.221-43.695l-0.41 0.315c-127.49-55.552-227.12-155.193-281.309-279.228l-1.348-3.463z" />
<glyph unicode="&#xe901;" glyph-name="ARROW-_-DOWN" horiz-adv-x="1792" d="M225.28 915.627l670.72-670.72 679.253 679.253c22.796 21.285 53.502 34.354 87.26 34.354 70.692 0 128-57.308 128-128 0-33.758-13.069-64.464-34.423-87.335l0.069 0.074-768-768c-23.361-24.109-55.995-39.115-92.134-39.253h-0.879c-36.134 0.313-68.713 15.276-92.137 39.229l-0.023 0.024-768 768h0.853c-20.677 22.662-33.343 52.945-33.343 86.187 0 70.727 57.336 128.063 128.063 128.063 37.486 0 71.21-16.106 94.63-41.775l0.090-0.101z" />
<glyph unicode="&#xe902;" glyph-name="ARROW-_-RIGHT" horiz-adv-x="585" d="M25.356 64.731l383.269 383.269-388.145 388.145c-12.163 13.026-19.631 30.573-19.631 49.863 0 40.396 32.747 73.143 73.143 73.143 19.29 0 36.837-7.468 49.906-19.67l-0.043 0.039 438.857-438.857c13.834-13.273 22.431-31.914 22.431-52.563 0-0.035 0-0.070 0-0.106v0.005-0.488c-0.083-20.512-8.664-39.004-22.404-52.15l-0.027-0.025-438.857-438.857c-12.95-11.816-30.255-19.053-49.25-19.053-40.415 0-73.179 32.763-73.179 73.179 0 21.42 9.203 40.691 23.872 54.074l0.057 0.052z" />
<glyph unicode="&#xe903;" glyph-name="ARROW-_-UP" horiz-adv-x="1792" d="M225.28-18.773l670.72 669.867 679.253-679.253c22.975-22.129 54.269-35.761 88.747-35.761 70.665 0 127.955 57.262 128 127.917v0.004c0.001 0.15 0.001 0.327 0.001 0.504 0 34.333-13.672 65.472-35.868 88.271l0.027-0.028-768 768c-22.944 24.199-55.323 39.257-91.22 39.257-0.331 0-0.661-0.001-0.991-0.004h-0.802c-0.106 0-0.232 0.001-0.357 0.001-36.078 0-68.642-15.047-91.758-39.207l-0.045-0.047-768-768h0.853c-23.684-23.246-38.363-55.596-38.363-91.374 0-70.692 57.308-128 128-128 40.243 0 76.148 18.571 99.613 47.611l0.19 0.243z" />
<glyph unicode="&#xe904;" glyph-name="ARROW-_LEFT" horiz-adv-x="585" d="M559.64 64.731l-383.171 383.269 388.242 388.145c12.38 13.074 19.993 30.773 19.993 50.249 0 40.396-32.747 73.143-73.143 73.143-19.489 0-37.197-7.622-50.307-20.048l0.033 0.031-438.857-438.857c-13.831-13.181-22.431-31.742-22.431-52.313 0-0.123 0-0.246 0.001-0.369v0.019-0.488c0-0.010 0-0.023 0-0.035 0-20.507 8.583-39.010 22.352-52.112l0.030-0.028 438.857-438.857c12.941-11.796 30.227-19.020 49.201-19.020 40.397 0 73.146 32.748 73.146 73.146 0 21.424-9.21 40.696-23.887 54.074l-0.058 0.052z" />
<glyph unicode="&#xe905;" glyph-name="BOOK-2" d="M994.080 131.52l-463.072-191.68c-5.611-2.428-12.144-3.84-19.008-3.84s-13.397 1.412-19.326 3.962l0.318-0.122-463.072 191.68c-17.698 7.335-29.92 24.473-29.92 44.465 0 0.005 0 0.011 0 0.016v-0.001 736c0 26.51 21.49 48 48 48v0c6.604-0.002 12.906-1.295 18.668-3.639l-0.332 0.119v-0.32h0.416l445.248-184.32 445.568 184.64c5.43 2.225 11.732 3.518 18.335 3.52h0.001c26.51 0 48-21.49 48-48v0-736c0-0.016 0-0.035 0-0.054 0-19.956-12.178-37.067-29.507-44.308l-0.317-0.117zM464 688l-368 152.32v-632.32l368-152.32v632.32zM928 840.32l-368-152.32v-632.32l368 152.32v632.32zM636.128 619.84l176 80c5.855 2.59 12.68 4.116 19.856 4.16h0.016c0.098 0.001 0.213 0.001 0.328 0.001 26.51 0 48-21.49 48-48 0-19.433-11.548-36.168-28.155-43.719l-0.301-0.123-176-80c-5.856-2.584-12.679-4.11-19.853-4.16h-0.019c-0.098-0.001-0.213-0.001-0.328-0.001-26.51 0-48 21.49-48 48 0 19.433 11.548 36.168 28.155 43.719l0.301 0.123zM636.128 443.84v0l176 80c5.855 2.59 12.68 4.116 19.856 4.16h0.016c0.098 0.001 0.213 0.001 0.328 0.001 26.51 0 48-21.49 48-48 0-19.433-11.548-36.168-28.155-43.719l-0.301-0.123-176-80v0.32c-5.81-2.827-12.64-4.48-19.855-4.48-0.006 0-0.012 0-0.017 0h0.001c-0.098-0.001-0.213-0.001-0.328-0.001-26.51 0-48 21.49-48 48 0 19.433 11.548 36.168 28.155 43.719l0.301 0.123zM636.128 267.84v0l176 80c5.855 2.59 12.68 4.116 19.856 4.16h0.016c0.098 0.001 0.213 0.001 0.328 0.001 26.51 0 48-21.49 48-48 0-19.433-11.548-36.168-28.155-43.719l-0.301-0.123-176-80c-5.856-2.584-12.679-4.11-19.853-4.16h-0.019c-0.098-0.001-0.213-0.001-0.328-0.001-26.51 0-48 21.49-48 48 0 19.433 11.548 36.168 28.155 43.719l0.301 0.123zM192 704c7.193-0.050 14.016-1.576 20.201-4.289l-0.329 0.129 176-80c16.909-7.673 28.456-24.409 28.456-43.841 0-26.51-21.49-48-48-48-0.115 0-0.231 0-0.346 0.001h0.018c-7.192 0.044-14.017 1.57-20.199 4.288l0.327-0.128-176 80c-16.909 7.673-28.456 24.409-28.456 43.841 0 26.51 21.49 48 48 48 0.115 0 0.231 0 0.346-0.001h-0.018zM192 528c7.193-0.050 14.016-1.576 20.201-4.289l-0.329 0.129 176-80c16.909-7.673 28.456-24.409 28.456-43.841 0-26.51-21.49-48-48-48-0.115 0-0.231 0-0.346 0.001h0.018c-0.018 0-0.039 0-0.060 0-7.201 0-14.016 1.653-20.086 4.6l0.274-0.12v-0.32l-176 80c-16.909 7.673-28.456 24.409-28.456 43.841 0 26.51 21.49 48 48 48 0.115 0 0.231 0 0.346-0.001h-0.018zM192 352c7.193-0.050 14.016-1.576 20.201-4.289l-0.329 0.129 176-80c16.909-7.673 28.456-24.409 28.456-43.841 0-26.51-21.49-48-48-48-0.115 0-0.231 0-0.346 0.001h0.018c-7.192 0.044-14.017 1.57-20.199 4.288l0.327-0.128-176 80c-16.909 7.673-28.456 24.409-28.456 43.841 0 26.51 21.49 48 48 48 0.115 0 0.231 0 0.346-0.001h-0.018z" />
<glyph unicode="&#xe906;" glyph-name="BULLSEYE" d="M512-64c-282.77 0-512 229.23-512 512s229.23 512 512 512c282.77 0 512-229.23 512-512v0c0-282.77-229.23-512-512-512v0zM512 864c-229.75 0-416-186.25-416-416s186.25-416 416-416c229.75 0 416 186.25 416 416v0c0 229.75-186.25 416-416 416v0zM512 144c-167.895 0-304 136.105-304 304s136.105 304 304 304c167.895 0 304-136.105 304-304v0c0-167.895-136.105-304-304-304v0zM512 656c-114.875 0-208-93.125-208-208s93.125-208 208-208c114.875 0 208 93.125 208 208v0c0 114.875-93.125 208-208 208v0zM512 352c-53.019 0-96 42.981-96 96s42.981 96 96 96c53.019 0 96-42.981 96-96v0c0-53.019-42.981-96-96-96v0z" />
<glyph unicode="&#xe907;" glyph-name="COMPUTER-_-OK" horiz-adv-x="1134" d="M1078.857 118.857h-347.429v-91.429l73.143-73.143v-18.286h-475.429v18.286l73.143 73.143v91.429h-347.429c-30.297 0-54.857 24.56-54.857 54.857v0 731.429c0 30.297 24.56 54.857 54.857 54.857v0h1024c30.297 0 54.857-24.56 54.857-54.857v0-731.429c0-30.297-24.56-54.857-54.857-54.857v0zM1060.571 886.857h-987.429v-621.714h987.429v621.714zM457.143 630.857c15.139-0.035 28.837-6.177 38.766-16.092l34.376-34.376 107.52 107.52c10.042 10.756 24.305 17.46 40.134 17.46 30.297 0 54.857-24.56 54.857-54.857 0-15.829-6.704-30.092-17.428-40.105l-0.032-0.029-146.286-146.286c-9.925-9.913-23.629-16.043-38.766-16.043s-28.841 6.13-38.766 16.044l-73.142 73.142c-9.913 9.925-16.043 23.629-16.043 38.766 0 30.28 24.533 54.83 54.806 54.857h0.003z" />
<glyph unicode="&#xe908;" glyph-name="dribbble" d="M1013.568 550.4c-7.585 36.614-17.872 68.725-31.085 99.276l1.261-3.276c-14.393 33.454-30.195 62.052-48.41 88.879l1.178-1.839c-19.293 28.222-39.836 52.91-62.461 75.517l-0.003 0.003c-22.734 22.609-47.498 43.228-73.977 61.543l-1.799 1.177c-80.228 55.050-179.428 87.915-286.304 87.915s-206.077-32.866-288.045-89.043l1.741 1.127c-28.253-19.49-52.996-40.108-75.733-62.74l0.021 0.020c-22.628-22.61-43.171-47.298-61.322-73.757l-1.142-1.763c-17.038-24.988-32.84-53.587-45.916-83.644l-1.316-3.396c-11.972-27.274-22.28-59.384-29.306-92.703l-0.582-3.297c-6.593-31.073-10.368-66.776-10.368-103.36s3.775-72.287 10.957-106.739l-0.589 3.379c7.609-36.617 17.916-68.727 31.151-99.273l-1.263 3.273c14.393-33.454 30.195-62.052 48.41-88.879l-1.178 1.839c19.293-28.222 39.836-52.91 62.461-75.517l0.003-0.003c22.716-22.612 47.459-43.23 73.918-61.545l1.794-1.175c80.228-55.050 179.428-87.915 286.304-87.915s206.077 32.866 288.045 89.043l-1.741-1.127c28.279 19.492 53.042 40.112 75.801 62.745l-0.025-0.025c22.628 22.61 43.171 47.298 61.322 73.757l1.142 1.763c17.038 24.988 32.84 53.587 45.916 83.644l1.316 3.396c11.952 27.275 22.239 59.386 29.244 92.706l0.58 3.294c6.634 31.073 10.432 66.773 10.432 103.36s-3.799 72.288-11.023 106.728l0.591-3.368zM949.12 451.2c-60.444 12.705-129.897 19.979-201.050 19.979-36.462 0-72.478-1.91-107.953-5.636l4.427 0.377c-3.072 7.040-6.4 14.72-9.408 22.4-9.088 21.12-18.88 42.88-29.056 63.36 97.913 36.471 180.092 95.85 242.878 171.841l0.77 0.959c61.153-73.705 98.545-169.046 99.391-273.096l0.001-0.184zM800.832 775.040c-58.065-72.865-135.739-127.824-225.045-157.123l-3.371-0.957c-54.112 98.055-108.223 181.302-167.545 260.418l4.089-5.698c30.931 8.131 66.44 12.799 103.040 12.8v0c111.007-0.011 212.32-41.508 289.281-109.831l-0.449 0.391zM407.296 871.68h0.005c-0.034 0.002-0.068 0.004-0.102 0.004-0.493 0-0.928-0.254-1.182-0.643l-0.001-0.001c0.344 0.324 0.781 0.552 1.281 0.641v0zM325.44 842.24c52.999-71.593 106.686-153.73 155.68-238.908l6.688-12.612c-120.799-32.993-259.705-52.533-402.98-53.755l-0.732-0.005c29.384 136.042 118.912 246.592 238.72 304.144l2.624 1.136zM74.752 447.36c0 4.48 0 8.96 0 13.44 1.689-0.006 3.686-0.010 5.684-0.010 157.885 0 310.473 22.679 454.684 64.957l-11.408-2.867c12.8-24.32 24.512-49.28 35.456-74.24-7.040-1.697-12.789-3.454-18.401-5.497l1.185 0.377c-150.437-54.937-273.107-155.949-353.95-285.716l-1.698-2.924c-69.214 76.812-111.554 179.023-111.554 291.123 0 0.477 0.001 0.954 0.002 1.431v-0.074zM512 9.6c-0.115 0-0.252 0-0.388 0-106.091 0-203.315 37.961-278.83 101.041l0.691-0.561 9.792-7.68c75.413 130.385 195.54 227.801 338.974 272.163l4.194 1.117c0.96 0 1.92 0.64 2.88 0.64 37.823-94.204 70.167-205.651 91.637-320.923l1.739-11.237c-50.39-21.693-109.033-34.384-170.621-34.56h-0.067zM756.352 84.48c-22.146 119.826-51.62 224.649-89.423 325.399l4.303-13.079c27.921 4.372 60.122 6.869 92.906 6.869 64.032 0 125.839-9.526 184.080-27.239l-4.475 1.17c-20.235-122.711-89.159-226.327-185.874-292.145l-1.518-0.975z" />
<glyph unicode="&#xe909;" glyph-name="EQUALIZER" horiz-adv-x="896" d="M848 432h-96c-26.51 0-48 21.49-48 48v0 192c0 26.51 21.49 48 48 48v0h96c26.51 0 48-21.49 48-48v0-192c0-26.51-21.49-48-48-48v0zM752 912c0 26.51 21.49 48 48 48s48-21.49 48-48v0-144h-96v144zM496 176h-96c-26.51 0-48 21.49-48 48v0 192c0 26.51 21.49 48 48 48v0h96c26.51 0 48-21.49 48-48v0-192c0-26.51-21.49-48-48-48v0zM400 912c0 26.51 21.49 48 48 48s48-21.49 48-48v0-400h-96v400zM144 304h-96c-26.51 0-48 21.49-48 48v0 192c0 26.51 21.49 48 48 48v0h96c26.51 0 48-21.49 48-48v0-192c0-26.51-21.49-48-48-48v0zM48 912c0 26.51 21.49 48 48 48s48-21.49 48-48v0-272h-96v272zM144-16c0-26.51-21.49-48-48-48s-48 21.49-48 48v0 272h96v-272zM496-16c0-26.51-21.49-48-48-48s-48 21.49-48 48v0 144h96v-144zM848-16c0-26.51-21.49-48-48-48s-48 21.49-48 48v0 400h96v-400z" />
<glyph unicode="&#xe90a;" glyph-name="facebook" horiz-adv-x="479" d="M478.655 959.361v-164.811s-121.372 12.137-151.652-34.495c-7.047-30.422-11.086-65.353-11.086-101.229 0-18.351 1.057-36.454 3.113-54.254l-0.204 2.17h160.85c-13.606-62.603-23.316-104.764-33.345-158.423h-128.399v-511.681h-222.878c0 157.784 0 341.759 0 509.125h-95.054v160.978h93.776c4.791 117.54 6.388 234.44 65.030 293.849 65.924 66.435 128.655 58.77 319.848 58.77z" />
<glyph unicode="&#xe90b;" glyph-name="google-plus" horiz-adv-x="1189" d="M1003.193 702.142v-181.318h-74.311v181.318h-185.776v74.311h185.776v181.318h74.311v-181.318h185.776v-74.311h-185.776zM489.335 885.689c62.556-31.819 104.665-95.715 104.665-169.445 0-1.3-0.013-2.598-0.039-3.892l0.003 0.194c-4.626-65.531-39.833-121.962-91.296-155.577l-0.775-0.475c-34.413-15.365-58.349-48.522-60.183-87.461l-0.008-0.226c16.909-40.625 45.55-73.555 81.664-95.359l0.895-0.501c64.88-37.323 107.863-106.256 107.863-185.228 0-5.423-0.203-10.798-0.601-16.12l0.043 0.709c0-110.723-107.305-235.565-305.862-235.565-174.184 0-325.703 83.228-325.703 194.694 0 112.952 138.664 222.189 312.773 222.189 19.024 0 36.412 0.743 54.395 0.743-24.614 20.838-40.695 51.095-42.64 85.137l-0.015 0.32c0.683 21.613 6.464 41.733 16.172 59.388l-0.344-0.683c-9.437-0.743-19.098 0.743-29.055 0.743-3.44-0.186-7.467-0.292-11.518-0.292-125.411 0-227.101 101.558-227.316 226.919v0.021c0 121.869 132.347 233.335 272.943 233.335h313.591l-70.224-73.567h-99.428zM345.99 324.644c-120.383 1.486-228.208-72.081-228.208-159.768 0-89.916 86.943-156.052 207.252-156.052 169.205 0 228.208 60.935 228.208 150.851 0 0.010 0 0.023 0 0.035 0 11.332-1.409 22.334-4.062 32.842l0.198-0.924c-13.227 51.274-60.043 75.797-125.436 120.383-22.843 8.010-49.18 12.637-76.597 12.637-0.476 0-0.953-0.001-1.428-0.004h0.073zM481.235 711.060c-7.711 96.762-80.273 174.499-173.856 190.068l-1.22 0.168c-80.776 2.229-134.948-77.283-120.978-181.318 6.367-96.857 77.495-175.386 170.198-193l1.311-0.207c80.776-2.229 138.441 80.255 124.545 184.29z" />
<glyph unicode="&#xe90c;" glyph-name="HOME" horiz-adv-x="1074" d="M1074.361 422.82c0-0.063 0-0.138 0-0.213 0-27.684-22.442-50.126-50.126-50.126-13.369 0-25.516 5.234-34.503 13.764l0.022-0.021v-0.336l-452.474 452.574-451.433-451.567c-9.139-8.867-21.597-14.358-35.338-14.437h-0.015c-27.813 0-50.361 22.547-50.361 50.361v0c0 0.071-0.001 0.154-0.001 0.238 0 14.171 5.936 26.955 15.457 36.002l0.021 0.020 485.41 485.477c9.197 9.496 22.051 15.403 36.286 15.444h3.097c0.772 0 1.511-0.336 2.283-0.336v0c12.469-1.359 23.377-7.152 31.293-15.745l0.032-0.035 198.085-198.085v46.332c0 27.813 22.547 50.361 50.361 50.361s50.361-22.547 50.361-50.361v0-147.053l188.013-188.013c8.38-8.899 13.53-20.922 13.53-34.148 0-0.034 0-0.068 0-0.102v0.005zM973.639 338.885v-352.525c0-27.813-22.547-50.361-50.361-50.361v0h-100.721v402.885h-201.443v-402.885h-470.033c-27.813 0-50.361 22.547-50.361 50.361v0 352.525l436.459 436.459zM453.246 338.885h-201.443v-201.443h201.443v201.443z" />
<glyph unicode="&#xe90d;" glyph-name="IMAGE" d="M976-64h-928c-26.51 0-48 21.49-48 48v0 928c0 26.51 21.49 48 48 48v0h928c26.51 0 48-21.49 48-48v0-928c0-26.51-21.49-48-48-48v0zM928 864h-832v-832h832v832zM208 816h176c26.51 0 48-21.49 48-48s-21.49-48-48-48v0h-144v-144c0-26.51-21.49-48-48-48s-48 21.49-48 48v0 0 240h64zM144 320v0c0 26.51 21.49 48 48 48s48-21.49 48-48v0 0-144h144c26.51 0 48-21.49 48-48s-21.49-48-48-48v0h-240v240zM640 816h240v-240c0-26.51-21.49-48-48-48s-48 21.49-48 48v0 0 144h-144c-26.51 0-48 21.49-48 48s21.49 48 48 48v0zM640 176h144v144c0 26.51 21.49 48 48 48s48-21.49 48-48v0 0-240h-240c-26.51 0-48 21.49-48 48s21.49 48 48 48v0z" />
<glyph unicode="&#xe90e;" glyph-name="instagram" d="M896-64.64h-768c-0.114 0-0.249-0.001-0.384-0.001-70.391 0-127.47 56.99-127.616 127.347v768.014c-0.001 0.19-0.002 0.415-0.002 0.64 0 70.692 57.308 128 128 128 0.001 0 0.001 0 0.002 0h768c0.001 0 0.001 0 0.002 0 70.692 0 128-57.308 128-128 0-0.225-0.001-0.45-0.002-0.675v0.035-768c-0.145-70.37-57.225-127.361-127.616-127.361-0.135 0-0.27 0-0.405 0.001h0.021zM512 645.76c-79.306-0.086-147.706-46.689-179.391-113.989l-0.513-1.211c-0.217-0.971-0.525-1.825-0.926-2.625l0.030 0.065c-1.591-3.301-3.322-7.532-4.836-11.865l-0.284-0.935c-0.766-1.703-1.55-3.827-2.203-6.007l-0.101-0.393c-1.472-4.48-2.688-8.96-3.776-13.44-0.576-1.92-1.216-4.48-1.664-6.4-1.088-5.12-1.792-9.6-2.432-14.72 0-1.92-0.704-3.84-0.96-5.76-0.704-7.040-1.152-14.080-1.152-21.12 0-109.573 88.827-198.4 198.4-198.4s198.4 88.827 198.4 198.4v0c0 7.040-0.448 14.080-1.152 21.12 0 1.92-0.64 3.84-0.96 5.76-0.64 5.12-1.408 9.6-2.432 14.72-0.448 1.92-1.088 4.48-1.664 6.4-1.152 4.48-2.304 8.96-3.776 13.44-0.754 2.573-1.538 4.697-2.444 6.756l0.14-0.356c-1.798 5.267-3.529 9.498-5.464 13.614l0.344-0.814c-0.371 0.735-0.679 1.59-0.882 2.484l-0.014 0.076c-32.228 68.573-100.725 115.2-180.112 115.2-0.062 0-0.124 0-0.186 0h0.010zM908.8 792.32c0 28.277-22.923 51.2-51.2 51.2v0h-102.4c-28.277 0-51.2-22.923-51.2-51.2v0-102.4c0.108-27.948 22.789-50.562 50.752-50.562 0.158 0 0.315 0.001 0.472 0.002h102.376c0.133-0.001 0.291-0.002 0.448-0.002 27.963 0 50.644 22.614 50.752 50.552v102.41zM908.8 530.56h-94.4c7.111-24.903 11.2-53.505 11.2-83.061 0-173.196-140.404-313.6-313.6-313.6s-313.6 140.404-313.6 313.6c0 29.557 4.089 58.158 11.732 85.27l-0.532-2.209h-94.4v-429.44c0.108-27.948 22.789-50.562 50.752-50.562 0.158 0 0.315 0.001 0.472 0.002h691.176c0.133-0.001 0.291-0.002 0.448-0.002 27.963 0 50.644 22.614 50.752 50.552v429.45z" />
<glyph unicode="&#xe90f;" glyph-name="LINE-GRAPH" d="M976-64h-928c-26.51 0-48 21.49-48 48v0 928c0 26.51 21.49 48 48 48v0h928c26.51 0 48-21.49 48-48v0-928c0-26.51-21.49-48-48-48v0zM928 864h-832v-832h832v832zM166.88 440.32v0l128 80c7.196 4.42 15.912 7.039 25.238 7.039 9.96 0 19.223-2.986 26.942-8.111l-0.18 0.112h0.192l212.192-141.44 244.416 172.8c7.81 5.721 17.608 9.155 28.208 9.155 26.529 0 48.035-21.506 48.035-48.035 0-15.929-7.753-30.047-19.692-38.786l-0.135-0.094-272-192c-7.756-5.772-17.517-9.251-28.089-9.28h-0.007c-10.347 0.095-19.895 3.438-27.695 9.058l0.143-0.098-213.024 141.76-100.32-62.72c-7.611-5.169-16.99-8.271-27.092-8.32h-0.012c-0.028 0-0.061 0-0.095 0-26.51 0-48 21.49-48 48 0 17.254 9.103 32.381 22.769 40.842l0.206 0.119z" />
<glyph unicode="&#xe910;" glyph-name="MAGNIFYING-GLASS" d="M995.241 100.421c17.322-17.366 28.033-41.333 28.033-67.802 0-53.025-42.985-96.010-96.010-96.010-26.556 0-50.593 10.781-67.974 28.206l-0.002 0.002-280.62 280.968c-56.106-33.777-123.835-53.758-196.231-53.758-212.643 0-385.024 172.381-385.024 385.024s172.381 385.024 385.024 385.024c212.643 0 385.024-172.381 385.024-385.024 0-72.163-19.853-139.69-54.394-197.415l0.972 1.753 281.201-280.968zM384.036 863.439c-158.832 0-287.591-128.759-287.591-287.591s128.759-287.591 287.591-287.591c158.832 0 287.591 128.759 287.591 287.591v0c-0.066 158.806-128.785 287.525-287.585 287.591h-0.007z" />
<glyph unicode="&#xe911;" glyph-name="PICTURE" d="M1024 140.8c-0.117-22.085-14.153-40.861-33.776-48.014l-0.357-0.114v-57.344c20.173-7.178 34.355-26.108 34.355-48.35 0-28.277-22.923-51.2-51.2-51.2-22.242 0-41.171 14.182-48.238 33.997l-0.111 0.358h-57.344c-7.169-20.033-25.988-34.108-48.094-34.108s-40.925 14.075-47.983 33.753l-0.111 0.356h-57.481c-7.135-20.052-25.951-34.149-48.060-34.149s-40.925 14.098-47.949 33.794l-0.111 0.356h-57.481c-7.135-20.052-25.951-34.149-48.060-34.149s-40.925 14.098-47.949 33.794l-0.111 0.356h-57.481c-7.135-20.052-25.951-34.149-48.060-34.149s-40.925 14.098-47.949 33.794l-0.111 0.356h-57.481c-7.135-20.052-25.951-34.149-48.060-34.149s-40.925 14.098-47.949 33.794l-0.111 0.356h-57.481c-7.171-20.187-26.107-34.382-48.359-34.382-28.277 0-51.2 22.923-51.2 51.2 0 22.271 14.219 41.221 34.075 48.266l0.358 0.111v57.344c-20.049 7.173-34.137 26.005-34.137 48.128s14.087 40.955 33.781 48.017l0.356 0.111v57.344c-20.049 7.173-34.137 26.005-34.137 48.128s14.087 40.955 33.781 48.017l0.356 0.111v57.344c-20.049 7.173-34.137 26.005-34.137 48.128s14.087 40.955 33.781 48.017l0.356 0.111v57.344c-20.049 7.173-34.137 26.005-34.137 48.128s14.087 40.955 33.781 48.017l0.356 0.111v57.344c-20.049 7.173-34.137 26.005-34.137 48.128s14.087 40.955 33.781 48.017l0.356 0.111v57.344c-20.213 7.156-34.433 26.106-34.433 48.377 0 28.277 22.923 51.2 51.2 51.2 22.252 0 41.188-14.195 48.248-34.024l0.111-0.358h57.481c7.135 20.052 25.951 34.149 48.060 34.149s40.925-14.098 47.949-33.794l0.111-0.356h57.481c7.135 20.052 25.951 34.149 48.060 34.149s40.925-14.098 47.949-33.794l0.111-0.356h57.481c7.135 20.052 25.951 34.149 48.060 34.149s40.925-14.098 47.949-33.794l0.111-0.356h57.481c7.135 20.052 25.951 34.149 48.060 34.149s40.925-14.098 47.949-33.794l0.111-0.356h57.481c7.169 20.033 25.988 34.108 48.094 34.108s40.925-14.075 47.983-33.753l0.111-0.356h57.344c7.178 20.173 26.108 34.355 48.35 34.355 28.277 0 51.2-22.923 51.2-51.2 0-22.242-14.182-41.171-33.997-48.238l-0.358-0.111v-57.344c20.049-7.173 34.137-26.005 34.137-48.128s-14.087-40.955-33.781-48.017l-0.356-0.111v-57.344c20.049-7.173 34.137-26.005 34.137-48.128s-14.087-40.955-33.781-48.017l-0.356-0.111v-57.344c20.049-7.173 34.137-26.005 34.137-48.128s-14.087-40.955-33.781-48.017l-0.356-0.111v-57.344c20.049-7.173 34.137-26.005 34.137-48.128s-14.087-40.955-33.781-48.017l-0.356-0.111v-57.344c19.981-7.267 34.016-26.043 34.133-48.114v-0.014zM887.467 823.467h-750.933v-750.933h750.933v750.933zM443.733 277.333l238.933 290.133 153.6-238.933v-204.8h-648.533l204.8 204.8zM341.333 516.267c-56.554 0-102.4 45.846-102.4 102.4s45.846 102.4 102.4 102.4c56.554 0 102.4-45.846 102.4-102.4v0c0-56.554-45.846-102.4-102.4-102.4v0z" />
<glyph unicode="&#xe912;" glyph-name="PIN-2" horiz-adv-x="767" d="M383.46-63.6s-383.7 427.666-383.7 639.5c0 211.912 171.788 383.7 383.7 383.7s383.7-171.788 383.7-383.7v0c0-211.835-383.7-639.5-383.7-639.5zM383.46 831.7c-141.275 0-255.8-114.526-255.8-255.8s114.526-255.8 255.8-255.8c141.275 0 255.8 114.526 255.8 255.8v0c0 141.275-114.526 255.8-255.8 255.8v0zM383.46 448c-70.637 0-127.9 57.263-127.9 127.9s57.263 127.9 127.9 127.9c70.637 0 127.9-57.263 127.9-127.9v0c0-70.637-57.263-127.9-127.9-127.9v0z" />
<glyph unicode="&#xe913;" glyph-name="pinterest" horiz-adv-x="784" d="M326.016 295.040c-8.384-33.28-16.768-68.48-25.6-102.4-8.733-39.346-18.619-72.525-30.524-104.724l1.788 5.524c-20.962-53.95-48.535-100.514-82.43-141.678l0.702 0.878c-22.976-26.88-18.112-16-25.024-14.72-5.312 1.28-5.76 6.4-6.784 14.080-1.848 20.037-2.902 43.336-2.902 66.88s1.054 46.842 3.117 69.849l-0.215-2.969c3.698 51.072 12.042 98.436 24.703 144.002l-1.215-5.122c19.2 82.56 37.888 163.2 57.6 246.4 2.123 5.294 3.444 11.424 3.646 17.836l0.002 0.084c-8.318 19.783-14.366 42.732-17.048 66.699l-0.104 1.141c-0.835 7.094-1.311 15.311-1.311 23.64 0 19.121 2.51 37.656 7.218 55.293l-0.339-1.494c8.461 42.402 36.936 76.708 74.946 93.121l0.83 0.319c8.612 3.225 18.564 5.091 28.952 5.091 14.788 0 28.693-3.783 40.8-10.433l-0.44 0.222c17.872-10.841 30.629-28.593 34.615-49.458l0.073-0.462c1.673-9.177 2.629-19.738 2.629-30.522 0-15.994-2.103-31.496-6.049-46.245l0.284 1.247c-10.688-48.64-24.768-85.12-37.504-132.48-5.818-15.045-9.189-32.455-9.189-50.652 0-7.647 0.595-15.156 1.742-22.481l-0.105 0.813c4.818-21.22 16.975-39.030 33.603-51.026l0.253-0.174c15.84-11.409 35.635-18.246 57.027-18.246 2.815 0 5.602 0.118 8.357 0.35l-0.36-0.024c44.291 4.079 82.32 27.78 105.728 62.221l0.32 0.499c37.462 52.497 61.785 116.728 66.935 186.294l0.073 1.226c2.177 16.784 3.42 36.197 3.42 55.9 0 8.703-0.242 17.349-0.721 25.933l0.053-1.192c-1.996 47.309-18.522 90.404-45.194 125.337l0.394-0.537c-25.775 31.33-59.903 54.914-98.985 67.426l-1.495 0.414c-28.41 9.076-61.089 14.307-94.99 14.307-19.396 0-38.392-1.712-56.846-4.994l1.948 0.287c-86.22-13.376-157.688-66.631-195.911-139.971l-0.697-1.469c-21.087-38.592-33.487-84.537-33.487-133.379 0-1.034 0.006-2.067 0.017-3.098l-0.001 0.157c-0.068-1.823-0.107-3.964-0.107-6.114 0-34.779 10.155-67.187 27.661-94.42l-0.418 0.694c5.312-8.32 13.12-14.72 18.304-24.32 1.288-4.938 2.028-10.606 2.028-16.448 0-10.783-2.521-20.978-7.005-30.027l0.177 0.395c-4.352-17.28-4.864-40.96-24.704-40.96-9.658 1.351-18.32 4.748-25.827 9.742l0.227-0.142c-52.262 32.030-88.629 85.625-96.786 148.090l-0.11 1.030c-3.771 19.531-5.929 41.994-5.929 64.96s2.157 45.429 6.281 67.195l-0.352-2.235c21.862 105.486 86.281 192.821 174.095 244.821l1.713 0.939c44.971 26.705 97.741 45.659 154.068 53.507l2.22 0.253c20.352 3.2 41.408 3.84 64 5.12 4.985 0.226 10.83 0.355 16.706 0.355 56.441 0 110.101-11.907 158.605-33.346l-2.51 0.99c46.825-21.121 86.5-50.283 118.964-86.1l0.268-0.3c52.169-59.769 85.295-137.35 89.25-222.551l0.030-0.809c-1.476-34.404-5.9-66.904-13.049-98.368l0.697 3.648c-13.396-107.086-70.455-198.699-152.495-257.803l-1.105-0.757c-20.252-13.261-43.592-24.359-68.411-32.105l-1.989-0.535c-22.33-7.182-48.018-11.323-74.674-11.323-5.251 0-10.464 0.161-15.636 0.477l0.71-0.035c-29.358 1.643-56.444 9.986-80.195 23.511l0.899-0.471c-21.871 11.608-39.525 28.625-51.574 49.308l-0.33 0.612z" />
<glyph unicode="&#xe914;" glyph-name="SHOPPING-CART" horiz-adv-x="1286" d="M1280.091 733.758v0l-180.994-401.397c-9.006-20.069-28.264-34.073-50.927-35.388l-0.16-0.007-519.627-34.666 29.922-85.899h566.335c66.506 0 120.419-53.913 120.419-120.419s-53.913-120.419-120.419-120.419c-66.48 0-120.378 53.872-120.419 120.342v0.004h-561.956c-0.042-66.474-53.939-120.346-120.419-120.346-66.506 0-120.419 53.913-120.419 120.419s53.913 120.419 120.419 120.419h108.742l-232.080 662.305h-137.935c-33.253 0-60.21 26.957-60.21 60.21s26.957 60.21 60.21 60.21h180.994c26.118-0.204 48.305-16.806 56.79-40.008l0.135-0.423 35.031-100.203h891.101c0.087 0 0.189 0.001 0.292 0.001 33.268 0 60.241-26.948 60.282-60.206v-0.004c-0.201-8.887-2.060-17.286-5.277-24.975l0.168 0.453zM375.853 698.216l110.932-317.979 517.437 34.52 127.717 283.459h-756.086z" />
<glyph unicode="&#xe915;" glyph-name="SPEECH-4" horiz-adv-x="1058" d="M1007.213 355.672h-33.574v-83.934c0-0.001 0-0.003 0-0.004 0-3.564-0.373-7.041-1.082-10.395l0.058 0.327c-0.605-2.635-1.308-4.878-2.163-7.045l0.115 0.33c-0.336-0.839-0.504-1.847-0.89-2.854-0.987-2.106-1.972-3.867-3.064-5.552l0.109 0.18c-0.588-1.007-1.024-2.182-1.679-3.19-1.804-2.489-3.643-4.68-5.624-6.733l0.017 0.018c-0.201-0.168-0.336-0.504-0.554-0.671-8.987-8.917-21.324-14.47-34.958-14.604h-0.026c-0.201 0-0.403-0.168-0.621-0.168v0c-13.908 0.008-26.496 5.652-35.604 14.772l-119.557 119.524h-465.954c-27.813 0-50.361 22.547-50.361 50.361v0 503.607c0 27.813 22.547 50.361 50.361 50.361v0h705.049c27.813 0 50.361-22.547 50.361-50.361v0-503.607c0-27.813-22.547-50.361-50.361-50.361v0zM747.268 305.311l106.194-106.093h0.134c18.035-17.402 42.599-28.142 69.671-28.202h0.012v-33.574c0-27.813-22.547-50.361-50.361-50.361v0h-533.101l-136.343-136.31c-9.109-9.12-21.697-14.765-35.603-14.772h-0.002c-0.218 0-0.403 0.168-0.621 0.168-13.66 0.135-25.997 5.687-34.987 14.608l0.003-0.003c-0.218 0.168-0.353 0.504-0.554 0.671-2.011 2.064-3.855 4.312-5.496 6.711l-0.111 0.172c-0.547 0.839-1.106 1.829-1.605 2.853l-0.074 0.168c-0.921 1.448-1.91 3.207-2.811 5.017l-0.16 0.355c-0.386 1.007-0.554 2.014-0.89 2.854-1.947 4.795-3.076 10.356-3.076 16.182 0 0.213 0.002 0.425 0.005 0.637v-0.032 100.721h-67.148c-27.813 0-50.361 22.547-50.361 50.361v0 570.754c0 27.813 22.547 50.361 50.361 50.361v0h151.082v-352.525c0-55.627 45.094-100.721 100.721-100.721v0h445.104z" />
<glyph unicode="&#xe916;" glyph-name="SPEECH-BUBBLE-2" horiz-adv-x="1152" d="M606.998 81.156c-44.819 3.386-85.964 9.758-125.99 19.051l5.553-1.086c-84.303-100.327-209.839-163.649-350.164-163.649-19.607 0-38.926 1.236-57.881 3.635l2.255-0.233c175.409 82.639 171.816 220.609 140.629 238.574-126.907 65.435-213.7 192.874-220.434 341.177l-0.032 0.875c0 244.323 267.821 441.218 606.064 441.218s544.481-196.895 544.481-441.218-206.165-438.344-544.481-438.344zM307.056 618.667c-59.529-0.001-107.787-48.26-107.787-107.789s48.259-107.789 107.789-107.789c59.53 0 107.789 48.259 107.789 107.789 0 0.253-0.001 0.505-0.003 0.757v-0.039c-0.407 59.221-48.509 107.071-107.787 107.071-0.001 0-0.002 0-0.003 0v0zM576.53 618.667c-59.529-0.001-107.787-48.26-107.787-107.789s48.259-107.789 107.789-107.789c59.53 0 107.789 48.259 107.789 107.789 0 0.253-0.001 0.505-0.003 0.757v-0.039c-0.407 59.221-48.509 107.071-107.787 107.071-0.001 0-0.002 0-0.003 0v0zM846.004 618.667c-59.529-0.001-107.787-48.26-107.787-107.789s48.259-107.789 107.789-107.789c59.53 0 107.789 48.259 107.789 107.789 0 0.253-0.001 0.505-0.003 0.757v-0.039c-0.407 59.221-48.509 107.071-107.787 107.071-0.001 0-0.002 0-0.003 0v0z" />
<glyph unicode="&#xe917;" glyph-name="tumblr" horiz-adv-x="639" d="M639.377-7.785c-33.605-16.744-72.919-31.394-113.899-41.884l-4.216-0.915c-33.656-8.123-72.295-12.781-112.022-12.781-0.794 0-1.588 0.002-2.382 0.006h0.122c-2.12-0.053-4.616-0.084-7.12-0.084-36.816 0-72.093 6.587-104.718 18.647l2.092-0.677c-35.249 11.243-65.722 28.494-91.772 50.766l0.36-0.3c-22.502 18.506-40.356 41.828-52.108 68.448l-0.466 1.182c-9.417 28.108-14.85 60.473-14.85 94.107 0 4.647 0.104 9.269 0.309 13.865l-0.023-0.653v358.368h-138.237v145.008c43.918 12.55 82.222 31.804 115.931 56.888l-0.947-0.674c28.117 24.063 51.163 53.127 67.936 85.932l0.736 1.584c18.138 37.992 30.776 82.132 35.505 128.612l0.14 1.704h144.369v-236.357h235.207v-182.697h-235.207v-261.909c-0.781-9.921-1.226-21.483-1.226-33.149 0-27.337 2.445-54.104 7.128-80.092l-0.408 2.728c8.212-18.64 21.602-33.737 38.347-43.837l0.429-0.24c21.502-12.855 47.43-20.457 75.133-20.457 0.738 0 1.474 0.005 2.21 0.016l-0.111-0.001c57.733 1.136 110.876 19.869 154.534 51.034l-0.838-0.568v-161.617z" />
<glyph unicode="&#xe918;" glyph-name="twitter" horiz-adv-x="1260" d="M857.246 958.425c4.139 0.232 8.983 0.365 13.857 0.365 74.864 0 142.431-31.241 190.376-81.398l0.094-0.099c49.666 8.386 94.179 24.049 134.771 46.028l-2.281-1.13c10.713 6.302 21.425 11.815 32.217 17.329-16.655-48.974-45.72-90.082-83.494-120.929l-0.474-0.375c-8.192-7.615-17.52-14.176-27.663-19.37l-0.694-0.323v-0.788c54.213 6.194 103.694 20.087 149.527 40.658l-3.174-1.274c-24.343-38.973-53.423-72.239-87.011-100.289l-0.659-0.535c-13.47-11.028-26.939-21.268-40.409-32.295 0.388-8.972 0.609-19.496 0.609-30.073 0-48.135-4.579-95.2-13.325-140.784l0.743 4.654c-47.911-273.54-244.231-491.413-501.369-569.737l-5.117-1.34c-64.429-19.451-138.472-30.648-215.131-30.648-53.348 0-105.429 5.423-155.723 15.747l4.971-0.853c-59.137 14.29-109.824 31.302-158.515 52.088l6.49-2.463c-28.999 12.811-53.015 25.445-76.101 39.458l2.925-1.649-22.686 14.178c17.038-2.533 36.703-3.979 56.706-3.979 9.12 0 18.17 0.301 27.141 0.893l-1.218-0.064c25.442 3.938 50.334 3.151 73.807 7.877 58.452 11.806 110.387 31.167 158.031 57.365l-2.856-1.439c26.866 12.515 49.957 28.072 70.228 46.657l-0.202-0.183c-0.103 0-0.226 0-0.349 0-27.481 0-53.815 4.908-78.174 13.897l1.565-0.505c-77.699 27.003-137.644 87.413-163.455 163.572l-0.542 1.843c13.798-2.659 29.667-4.18 45.892-4.18 24.753 0 48.68 3.54 71.3 10.143l-1.795-0.449c-32.15 4.261-60.87 16.327-85.011 34.219l0.492-0.348c-73.429 43.986-121.82 123.128-121.82 213.571 0 2.732 0.044 5.455 0.132 8.166l-0.010-0.395c8.822-4.726 17.644-8.665 26.466-12.603 15.528-6.304 33.765-11.504 52.672-14.74l1.6-0.226c6.938-2.677 14.967-4.228 23.357-4.228 4.218 0 8.344 0.392 12.344 1.141l-0.413-0.064h-1.26c-12.997 14.966-34.265 25.206-47.262 40.96-40.441 46.192-65.108 107.082-65.108 173.734 0 21.642 2.601 42.676 7.506 62.807l-0.373-1.809c7.148 25.799 16.61 48.298 28.506 69.232l-0.779-1.49c0.165-0.467 0.602-0.796 1.117-0.796 0.051 0 0.1 0.003 0.149 0.009l-0.006-0.001c7.138-10.335 14.914-19.362 23.545-27.489l0.086-0.080c23.186-27.016 48.391-51.047 75.796-72.385l1.162-0.871c88.071-72.049 194.413-125.273 310.904-151.831l5.118-0.982c34.763-9.222 74.73-14.663 115.919-14.965l0.186-0.001c-4.564 17.485-7.184 37.558-7.184 58.243 0 22.436 3.083 44.152 8.847 64.748l-0.403-1.687c19.41 78.544 73.52 141.507 144.724 172.657l1.629 0.635c16.247 7.162 35.412 13.401 55.288 17.74l2.056 0.376c10.161 0.788 20.638 2.363 31.193 3.151z" />
<glyph unicode="&#xe919;" glyph-name="USERS" horiz-adv-x="1452" d="M1452.144-18.549v-0.455c-0.257-24.905-20.506-44.996-45.448-44.996-0.001 0-0.002 0-0.002 0h-336.879c25.376 5.901 44.021 28.248 44.178 54.978v0.017s0 204.527-149.987 279.066c-28.88 16.855-62.801 28.604-98.983 33.051l-1.281 0.128 0.909 88.628c-27.446 28.79-44.722 67.488-45.945 110.207l-0.005 0.237c-21.907-5.909-29.134 25.907-30.452 46.36-1.182 19.544-12.681 80.902 14.090 75.448-4.804 26.998-7.551 58.080-7.551 89.803 0 2.624 0.019 5.243 0.056 7.857l-0.004-0.396c15.117 83.445 87.21 145.903 173.891 145.903 0.56 0 1.12-0.003 1.679-0.008l-0.086 0.001c120.398-5 168.167-76.811 174.757-145.442 0.020-1.727 0.031-3.768 0.031-5.811 0-32.471-2.855-64.275-8.328-95.175l0.48 3.268c26.77 5.454 15.135-55.904 13.635-75.448-1.136-20.453-8.545-52.268-30.406-45.905-1.256-42.96-18.544-81.654-46.059-110.512l0.063 0.067 0.818-88.174s22.18-12.726 115.717-51.359 64.176-9.999 140.351-47.723c120.398-59.54 120.398-223.617 120.398-223.617v0zM773.704 284.151c102.809-42.723 70.539-10.908 154.304-52.268 132.352-65.449 132.352-246.342 132.352-246.342v0c-0.078-27.377-22.289-49.541-49.677-49.541 0 0 0 0 0 0h-961.005c0 0 0 0 0 0-27.388 0-49.6 22.164-49.677 49.534v0.007s0 180.893 132.352 246.342c83.765 41.36 51.495 7.727 154.532 50.45 50.968 19.341 92.896 38.605 133.362 60.247l-6.1-2.979 0.954 97.719c-30.123 31.649-49.087 74.162-50.444 121.089l-0.006 0.264c-24.089-6.818-32.043 28.179-33.452 50.45s-13.953 89.083 15.408 83.174c-5.247 29.608-8.246 63.694-8.246 98.481 0 3.088 0.024 6.171 0.071 9.247l-0.006-0.465c16.808 91.542 95.977 159.994 191.134 159.994 0.618 0 1.235-0.003 1.852-0.009l-0.094 0.001c132.306-5.454 184.756-84.538 192.074-159.986 0.019-1.775 0.030-3.872 0.030-5.971 0-35.785-3.136-70.838-9.147-104.899l0.527 3.607c29.406 5.909 16.635-61.358 15.18-82.72-1.273-22.725-9.408-57.722-33.452-50.45-1.191-47.228-20.213-89.795-50.555-121.416l0.060 0.063 0.864-97.264c32.892-17.308 74.664-36.26 117.486-53.124l9.321-3.235z" />
<glyph unicode="&#xe91a;" glyph-name="VIEW" horiz-adv-x="1769" d="M1768.471 445.724c-0.025-0.273-0.039-0.59-0.039-0.91s0.014-0.638 0.042-0.951l-0.003 0.041v-0.91c0-0.91 0-0.91 0-1.82s0-0.91 0-1.82v0c-2.083-14.637-8.64-27.461-18.221-37.336l0.016 0.017c-18.204-22.756-38.866-43.691-59.255-64.626-107.386-111.204-231.037-205.747-367.325-280.019l-7.959-3.97c-81.166-44.948-175.267-80.217-274.737-100.816l-6.522-1.129c-45.166-8.809-97.104-13.849-150.219-13.849-61.252 0-120.939 6.702-178.368 19.414l5.458-1.014c-193.619 50.183-361.736 140.345-502.201 261.657l1.579-1.333c-70.865 56.598-133.685 117.456-190.288 183.78l-1.587 1.905c-11.504 12.549-18.554 29.344-18.554 47.787s7.050 35.238 18.602 47.839l-0.048-0.053c18.204 21.845 38.775 42.78 59.255 63.716 107.357 111.25 231.014 205.798 367.333 280.026l7.952 3.963c81.139 44.963 175.211 80.233 274.657 100.818l6.511 1.127c45.238 9.024 97.246 14.188 150.46 14.188 61.185 0 120.776-6.827 178.052-19.761l-5.383 1.022c193.713-49.768 361.907-139.995 502.141-261.612l-1.519 1.289c70.906-56.324 133.724-116.891 190.335-182.935l1.54-1.84c9.249-10.044 15.727-22.772 18.143-36.888l0.061-0.431c0-0.91 0-0.91 0-0.91 0.049-0.274 0.078-0.589 0.078-0.91s-0.028-0.637-0.082-0.943l0.005 0.032s0-0.91 0-0.91c-0.022-0.272-0.034-0.59-0.034-0.91s0.012-0.638 0.037-0.952l-0.003 0.042c0-0.91 0-0.91 0-1.82s0-2.731 0-3.641 0.091-1.82 0.091-3.641zM883.735 795.25c-183.196-0.052-331.685-148.573-331.685-331.776 0-183.235 148.541-331.776 331.776-331.776 183.075 0 331.517 148.282 331.776 331.296v0.025c0 0.135 0 0.295 0 0.455 0 183.235-148.541 331.776-331.776 331.776-0.032 0-0.064 0-0.097 0h0.005zM883.735 297.358c-0.054 0-0.118 0-0.181 0-91.743 0-166.116 74.372-166.116 166.116s74.372 166.116 166.116 166.116c91.743 0 166.116-74.372 166.116-166.116 0-0.16 0-0.32-0.001-0.48v0.025c-0.207-91.504-74.408-165.609-165.928-165.66h-0.005z" />
<glyph unicode="&#xe91b;" glyph-name="youtube" horiz-adv-x="1489" d="M1260.172 960.931h-991.791c-126.417 0-268.381-84.713-268.381-208.524v-616.262c0-123.811 141.964-199.215 268.381-199.215h991.791c6.622-0.752 14.297-1.181 22.073-1.181 111.988 0 203.2 88.956 206.829 200.062l0.009 0.333v616.262c-2.835 116.048-97.582 209.040-214.049 209.040-5.229 0-10.415-0.187-15.55-0.556l0.689 0.040zM648.285 211.549l-2.979 469.178 326.563-236.451z" />
</font>
</defs>
</svg>
